<?xml version="1.0" encoding="utf-8"?>
<!-- Generator: Adobe Illustrator 22.0.0, SVG Export Plug-In . SVG Version: 6.00 Build 0)  -->
<svg version="1.1" id="Layer_1" xmlns="http://www.w3.org/2000/svg" xmlns:xlink="http://www.w3.org/1999/xlink" x="0px" y="0px"
	 viewBox="0 0 299.9 86.3" style="enable-background:new 0 0 299.9 86.3;" xml:space="preserve">
<style type="text/css">
	.st0{fill:none;}
	.st1{fill:#649DD2;}
	.st2{fill:#E4462C;}
	.st3{fill:#1F3963;}
	.st4{fill:#585858;}
	.st5{fill:#494748;}
</style>
<line class="st0" x1="106.6" y1="38.5" x2="104.1" y2="38.5"/>
<g>
	<g>
		<path class="st1" d="M39.6,12.2l4.2,8.9c6.9-3.3,15.2-3.3,22.4,0.7c11.9,6.5,16.3,21.5,9.8,33.5C69.5,67.2,54.5,71.6,42.5,65
			C35.5,61.1,31,54.4,30,47l-9.7,1.4c1.5,10.3,7.7,19.8,17.6,25.2c16.7,9.1,37.6,3,46.8-13.7c9.1-16.7,3-37.7-13.7-46.8
			C60.9,7.6,49.3,7.7,39.6,12.2z"/>
		<path class="st2" d="M44.2,38.4l-29.6,4.3c-0.2-1.4-0.3-2.8-0.3-4.3c0-11.9,6.9-22.1,17-27L44.2,38.4z"/>
		<path class="st3" d="M54.4,43.5l-5.7-12.1c3.7-1.7,8.1-1.7,11.9,0.4c6.4,3.5,8.7,11.5,5.2,17.9s-11.5,8.7-17.9,5.2
			c-3.7-2-6-5.9-6.6-9.8"/>
	</g>
	<g>
		<g>
			<path class="st4" d="M110.3,44c-1.6,0-3.2-0.3-4.7-0.9c-1.6-0.6-3-1.5-4.2-2.6l3.1-3.8c0.9,0.7,1.8,1.4,2.9,1.8
				c1.1,0.5,2.1,0.7,3.1,0.7c1.1,0,2-0.2,2.6-0.6c0.6-0.4,0.8-1,0.8-1.7c0-0.4-0.1-0.7-0.2-1c-0.2-0.3-0.4-0.5-0.7-0.7
				c-0.3-0.2-0.7-0.4-1.1-0.6c-0.4-0.2-0.9-0.4-1.4-0.6l-3.2-1.3c-0.6-0.2-1.2-0.6-1.8-1c-0.6-0.4-1.1-0.9-1.6-1.4s-0.8-1.2-1.1-1.9
				c-0.3-0.7-0.4-1.5-0.4-2.4c0-1,0.2-1.9,0.6-2.8s1-1.7,1.8-2.3c0.8-0.7,1.7-1.2,2.7-1.5c1.1-0.4,2.2-0.6,3.5-0.6
				c1.4,0,2.8,0.3,4.2,0.8c1.4,0.5,2.6,1.3,3.6,2.4l-2.8,3.5c-0.8-0.6-1.6-1.1-2.4-1.4s-1.7-0.5-2.6-0.5s-1.7,0.2-2.3,0.6
				c-0.6,0.4-0.8,0.9-0.8,1.6c0,0.4,0.1,0.7,0.3,0.9c0.2,0.3,0.4,0.5,0.8,0.7c0.3,0.2,0.7,0.4,1.2,0.6c0.4,0.2,0.9,0.4,1.5,0.6
				l3.1,1.3c1.5,0.6,2.7,1.4,3.5,2.5c0.9,1,1.3,2.4,1.3,4.1c0,1-0.2,2-0.6,2.9s-1,1.7-1.8,2.4s-1.7,1.2-2.9,1.6S111.7,44,110.3,44z"
				/>
			<path class="st4" d="M123.5,43.6V19.3h5.6l6.3,12.1l2.4,5.4h0.1c-0.1-1.3-0.3-2.7-0.4-4.3c-0.2-1.6-0.2-3.1-0.2-4.5v-8.6h5.2
				v24.3h-5.6l-6.3-12.1l-2.4-5.3h-0.1c0.1,1.3,0.3,2.8,0.4,4.3c0.2,1.5,0.2,3,0.2,4.5v8.6L123.5,43.6L123.5,43.6z"/>
			<path class="st4" d="M148.3,43.6V19.3h6.9c1.9,0,3.5,0.2,5,0.7s2.8,1.2,3.8,2.2c1.1,1,1.9,2.2,2.5,3.7s0.9,3.3,0.9,5.4
				s-0.3,3.9-0.9,5.4c-0.6,1.5-1.4,2.8-2.4,3.8s-2.3,1.8-3.7,2.3c-1.5,0.5-3.1,0.7-4.9,0.7L148.3,43.6L148.3,43.6z M153.8,39.2h1
				c1,0,2-0.1,2.8-0.4c0.8-0.3,1.6-0.7,2.2-1.3c0.6-0.6,1.1-1.4,1.4-2.4c0.3-1,0.5-2.2,0.5-3.7c0-1.4-0.2-2.6-0.5-3.6
				s-0.8-1.8-1.4-2.3c-0.6-0.6-1.3-1-2.2-1.2c-0.8-0.2-1.8-0.4-2.8-0.4h-1V39.2z"/>
		</g>
		<g>
			<path class="st5" d="M105,64.5c-0.7,0-1.4-0.1-2.1-0.4c-0.6-0.3-1.2-0.7-1.7-1.2L102,62c0.4,0.4,0.8,0.7,1.3,1
				c0.5,0.2,1,0.4,1.6,0.4c0.7,0,1.3-0.2,1.6-0.5c0.4-0.3,0.6-0.7,0.6-1.3c0-0.3,0-0.5-0.1-0.7s-0.2-0.4-0.4-0.5
				c-0.2-0.1-0.3-0.3-0.6-0.4c-0.2-0.1-0.5-0.2-0.7-0.3l-1.5-0.7c-0.2-0.1-0.5-0.2-0.8-0.4s-0.5-0.3-0.7-0.6
				c-0.2-0.2-0.4-0.5-0.5-0.8s-0.2-0.6-0.2-1s0.1-0.8,0.3-1.1c0.2-0.3,0.4-0.6,0.7-0.9c0.3-0.3,0.7-0.5,1.1-0.6s0.9-0.2,1.3-0.2
				c0.6,0,1.2,0.1,1.8,0.4s1,0.6,1.4,1l-0.7,0.9c-0.3-0.3-0.7-0.6-1.1-0.7c-0.4-0.2-0.8-0.3-1.3-0.3c-0.6,0-1.1,0.1-1.4,0.4
				c-0.4,0.3-0.5,0.7-0.5,1.1c0,0.3,0.1,0.5,0.2,0.7s0.2,0.3,0.4,0.5c0.2,0.1,0.4,0.3,0.6,0.4c0.2,0.1,0.4,0.2,0.6,0.3l1.5,0.7
				c0.3,0.1,0.6,0.3,0.9,0.4c0.3,0.2,0.5,0.4,0.7,0.6c0.2,0.2,0.3,0.5,0.5,0.8s0.2,0.6,0.2,1s-0.1,0.8-0.3,1.2
				c-0.2,0.4-0.4,0.7-0.7,1c-0.3,0.3-0.7,0.5-1.1,0.7C106.1,64.5,105.6,64.5,105,64.5z"/>
			<path class="st5" d="M112.3,64.3l-2.8-7.9h1.4l1.5,4.5c0.1,0.4,0.2,0.8,0.4,1.2c0.1,0.4,0.2,0.8,0.4,1.2h0.1
				c0.1-0.4,0.2-0.8,0.4-1.2c0.1-0.4,0.2-0.8,0.4-1.2l1.5-4.5h1.3l-2.8,7.9H112.3z"/>
			<path class="st5" d="M121.3,64.5c-0.5,0-1-0.1-1.5-0.3c-0.5-0.2-0.9-0.5-1.2-0.8c-0.3-0.4-0.6-0.8-0.8-1.3
				c-0.2-0.5-0.3-1.1-0.3-1.7s0.1-1.2,0.3-1.7c0.2-0.5,0.5-1,0.8-1.3c0.3-0.4,0.7-0.6,1.1-0.8s0.9-0.3,1.3-0.3
				c0.5,0,0.9,0.1,1.3,0.3s0.7,0.4,1,0.7s0.5,0.7,0.6,1.2s0.2,1,0.2,1.5c0,0.1,0,0.3,0,0.4c0,0.1,0,0.3,0,0.3h-5.3
				c0.1,0.8,0.3,1.5,0.8,2s1.1,0.7,1.8,0.7c0.4,0,0.7-0.1,1-0.2c0.3-0.1,0.6-0.3,0.9-0.4l0.5,0.9c-0.3,0.2-0.7,0.4-1.2,0.6
				C122.4,64.5,121.9,64.5,121.3,64.5z M118.9,59.8h4.2c0-0.8-0.2-1.4-0.5-1.8s-0.8-0.6-1.4-0.6c-0.3,0-0.5,0.1-0.8,0.2
				s-0.5,0.3-0.7,0.5s-0.4,0.5-0.5,0.8C119,59,118.9,59.4,118.9,59.8z"/>
			<path class="st5" d="M126.2,64.3v-7.9h1.1l0.1,1.1l0,0c0.4-0.4,0.8-0.7,1.2-1s0.9-0.4,1.5-0.4c0.8,0,1.4,0.3,1.8,0.8
				c0.4,0.5,0.6,1.3,0.6,2.3v5h-1.3v-4.8c0-0.7-0.1-1.3-0.4-1.6c-0.2-0.3-0.6-0.5-1.1-0.5c-0.4,0-0.8,0.1-1.1,0.3s-0.7,0.5-1.1,0.9
				v5.7h-1.3V64.3z"/>
			<path class="st5" d="M137.2,64.5c-0.6,0-1.1-0.1-1.6-0.3c-0.5-0.2-1-0.5-1.3-0.8l0.7-0.9c0.3,0.3,0.7,0.5,1.1,0.7
				c0.4,0.2,0.8,0.3,1.3,0.3s0.9-0.1,1.2-0.4c0.3-0.2,0.4-0.5,0.4-0.9c0-0.2-0.1-0.4-0.2-0.5c-0.1-0.2-0.2-0.3-0.4-0.4
				c-0.2-0.1-0.4-0.2-0.6-0.3c-0.2-0.1-0.4-0.2-0.7-0.3s-0.6-0.2-0.8-0.3c-0.3-0.1-0.5-0.3-0.8-0.5c-0.2-0.2-0.4-0.4-0.5-0.6
				c-0.1-0.2-0.2-0.5-0.2-0.9c0-0.3,0.1-0.6,0.2-0.9c0.1-0.3,0.3-0.5,0.5-0.7s0.5-0.4,0.9-0.5c0.3-0.1,0.7-0.2,1.1-0.2
				c0.5,0,1,0.1,1.4,0.3s0.8,0.4,1.1,0.6l-0.6,0.8c-0.3-0.2-0.6-0.4-0.8-0.5c-0.3-0.1-0.6-0.2-1-0.2c-0.5,0-0.9,0.1-1.1,0.3
				c-0.2,0.2-0.3,0.5-0.3,0.8c0,0.2,0,0.3,0.1,0.5c0.1,0.1,0.2,0.3,0.4,0.4c0.2,0.1,0.3,0.2,0.6,0.3c0.2,0.1,0.4,0.2,0.7,0.3
				s0.6,0.2,0.9,0.3c0.3,0.1,0.5,0.3,0.8,0.4c0.2,0.2,0.4,0.4,0.6,0.7c0.1,0.3,0.2,0.6,0.2,0.9c0,0.3-0.1,0.6-0.2,0.9
				c-0.1,0.3-0.3,0.5-0.6,0.7c-0.2,0.2-0.5,0.4-0.9,0.5C138,64.5,137.6,64.5,137.2,64.5z"/>
			<path class="st5" d="M141.9,64.3V52.8h1.3v7.8l0,0l3.4-4.2h1.5l-2.6,3.2l3,4.7H147l-2.3-3.8l-1.5,1.7v2.1
				C143.2,64.3,141.9,64.3,141.9,64.3z"/>
			<path class="st5" d="M153.2,64.3v-7.9h1.1l0.1,1.1l0,0c0.4-0.4,0.8-0.7,1.2-1s0.9-0.4,1.5-0.4c0.8,0,1.4,0.3,1.8,0.8
				c0.4,0.5,0.6,1.3,0.6,2.3v5h-1.3v-4.8c0-0.7-0.1-1.3-0.4-1.6c-0.2-0.3-0.6-0.5-1.1-0.5c-0.4,0-0.8,0.1-1.1,0.3s-0.7,0.5-1.1,0.9
				v5.7h-1.3V64.3z"/>
			<path class="st5" d="M163.9,64.5c-0.7,0-1.2-0.2-1.6-0.6c-0.4-0.4-0.7-0.9-0.7-1.7c0-0.9,0.4-1.5,1.2-2s2-0.8,3.7-1
				c0-0.2,0-0.5-0.1-0.7c0-0.2-0.1-0.4-0.3-0.6c-0.1-0.2-0.3-0.3-0.5-0.4c-0.2-0.1-0.5-0.2-0.8-0.2c-0.5,0-0.9,0.1-1.3,0.3
				c-0.4,0.2-0.8,0.4-1.1,0.6l-0.5-0.9c0.4-0.2,0.8-0.5,1.3-0.7s1.1-0.3,1.8-0.3c1,0,1.7,0.3,2.1,0.9c0.4,0.6,0.7,1.4,0.7,2.4v4.8
				h-1.1l-0.1-0.9l0,0c-0.4,0.3-0.8,0.6-1.2,0.8C164.9,64.4,164.4,64.5,163.9,64.5z M164.3,63.5c0.4,0,0.7-0.1,1.1-0.3
				c0.3-0.2,0.7-0.4,1.1-0.8v-2.2c-0.7,0.1-1.2,0.2-1.7,0.3s-0.8,0.3-1.1,0.4c-0.3,0.2-0.5,0.3-0.6,0.6c-0.1,0.2-0.2,0.4-0.2,0.7
				c0,0.5,0.1,0.8,0.4,1C163.6,63.4,163.9,63.5,164.3,63.5z"/>
			<path class="st5" d="M172.5,64.5c-0.4,0-0.8-0.1-1.1-0.2s-0.5-0.3-0.7-0.5c-0.2-0.2-0.3-0.5-0.4-0.8c-0.1-0.3-0.1-0.7-0.1-1.1
				v-4.4H169v-1l1.2-0.1l0.2-2.2h1.1v2.2h2.1v1.1h-2.1v4.4c0,0.5,0.1,0.9,0.3,1.1c0.2,0.3,0.5,0.4,1,0.4c0.1,0,0.3,0,0.5-0.1
				c0.2,0,0.3-0.1,0.4-0.1l0.3,1c-0.2,0.1-0.5,0.1-0.7,0.2C173.1,64.5,172.8,64.5,172.5,64.5z"/>
			<path class="st5" d="M176.2,54.8c-0.3,0-0.5-0.1-0.7-0.2c-0.2-0.2-0.3-0.4-0.3-0.6c0-0.3,0.1-0.5,0.3-0.6
				c0.2-0.2,0.4-0.2,0.7-0.2s0.5,0.1,0.7,0.2c0.2,0.2,0.3,0.4,0.3,0.6c0,0.2-0.1,0.5-0.3,0.6C176.7,54.7,176.5,54.8,176.2,54.8z
				 M175.6,64.3v-7.9h1.3v7.9H175.6z"/>
			<path class="st5" d="M182.6,64.5c-0.5,0-1-0.1-1.4-0.3c-0.4-0.2-0.8-0.5-1.2-0.8s-0.6-0.8-0.8-1.3s-0.3-1.1-0.3-1.7
				c0-0.7,0.1-1.2,0.3-1.8s0.5-1,0.8-1.3c0.3-0.4,0.7-0.6,1.2-0.8c0.4-0.2,0.9-0.3,1.4-0.3s1,0.1,1.4,0.3s0.8,0.5,1.2,0.8
				c0.3,0.4,0.6,0.8,0.8,1.3s0.3,1.1,0.3,1.8s-0.1,1.2-0.3,1.7s-0.5,0.9-0.8,1.3c-0.3,0.4-0.7,0.6-1.2,0.8
				C183.6,64.4,183.1,64.5,182.6,64.5z M182.6,63.4c0.3,0,0.6-0.1,0.9-0.2c0.3-0.1,0.5-0.4,0.7-0.6c0.2-0.3,0.4-0.6,0.5-1
				s0.2-0.8,0.2-1.2s-0.1-0.9-0.2-1.2c-0.1-0.4-0.3-0.7-0.5-1s-0.4-0.5-0.7-0.6s-0.6-0.2-0.9-0.2c-0.3,0-0.6,0.1-0.9,0.2
				c-0.3,0.1-0.5,0.4-0.7,0.6c-0.2,0.3-0.4,0.6-0.5,1s-0.2,0.8-0.2,1.2s0.1,0.9,0.2,1.2c0.1,0.4,0.3,0.7,0.5,1s0.4,0.5,0.7,0.6
				C182,63.4,182.3,63.4,182.6,63.4z"/>
			<path class="st5" d="M188.4,64.3v-7.9h1.1l0.1,1.1l0,0c0.4-0.4,0.8-0.7,1.2-1s0.9-0.4,1.5-0.4c0.8,0,1.4,0.3,1.8,0.8
				c0.4,0.5,0.6,1.3,0.6,2.3v5h-1.3v-4.8c0-0.7-0.1-1.3-0.4-1.6c-0.2-0.3-0.6-0.5-1.1-0.5c-0.4,0-0.8,0.1-1.1,0.3s-0.7,0.5-1.1,0.9
				v5.7h-1.3V64.3z"/>
			<path class="st5" d="M200.5,64.5c-0.5,0-1-0.1-1.5-0.3c-0.5-0.2-0.9-0.5-1.2-0.8c-0.3-0.4-0.6-0.8-0.8-1.3s-0.3-1.1-0.3-1.7
				s0.1-1.2,0.3-1.7s0.5-1,0.8-1.3c0.3-0.4,0.7-0.6,1.1-0.8c0.4-0.2,0.9-0.3,1.3-0.3c0.5,0,0.9,0.1,1.3,0.3c0.4,0.2,0.7,0.4,1,0.7
				s0.5,0.7,0.6,1.2s0.2,1,0.2,1.5c0,0.1,0,0.3,0,0.4c0,0.1,0,0.3,0,0.3H198c0.1,0.8,0.3,1.5,0.8,2s1.1,0.7,1.8,0.7
				c0.4,0,0.7-0.1,1-0.2c0.3-0.1,0.6-0.3,0.9-0.4l0.5,0.9c-0.3,0.2-0.7,0.4-1.2,0.6C201.5,64.5,201,64.5,200.5,64.5z M198,59.8h4.2
				c0-0.8-0.2-1.4-0.5-1.8c-0.3-0.4-0.8-0.6-1.4-0.6c-0.3,0-0.5,0.1-0.8,0.2s-0.5,0.3-0.7,0.5s-0.4,0.5-0.5,0.8
				C198.1,59,198,59.4,198,59.8z"/>
			<path class="st5" d="M206.7,64.5c-0.5,0-0.9-0.2-1.1-0.5c-0.2-0.3-0.3-0.7-0.3-1.3v-10h1.3v10.1c0,0.2,0,0.4,0.1,0.5
				s0.2,0.1,0.3,0.1h0.1c0,0,0.1,0,0.2,0l0.2,1c-0.1,0-0.2,0.1-0.3,0.1C207.1,64.5,206.9,64.5,206.7,64.5z"/>
			<path class="st5" d="M210.9,64.5c-0.5,0-0.9-0.2-1.1-0.5c-0.2-0.3-0.3-0.7-0.3-1.3v-10h1.3v10.1c0,0.2,0,0.4,0.1,0.5
				s0.2,0.1,0.3,0.1h0.1c0,0,0.1,0,0.2,0l0.2,1c-0.1,0-0.2,0.1-0.3,0.1C211.2,64.5,211.1,64.5,210.9,64.5z"/>
			<path class="st5" d="M219.6,64.5c-1,0-1.8-0.4-2.4-1.1c-0.6-0.7-0.9-1.7-0.9-3.1c0-0.6,0.1-1.2,0.3-1.7s0.4-1,0.8-1.3
				c0.3-0.4,0.7-0.6,1.1-0.8c0.4-0.2,0.8-0.3,1.3-0.3s0.9,0.1,1.2,0.2c0.3,0.2,0.7,0.4,1,0.7l-0.1-1.3v-3h1.3v11.6h-1.1l-0.1-0.9
				l0,0c-0.3,0.3-0.7,0.6-1.1,0.8C220.5,64.4,220,64.5,219.6,64.5z M219.9,63.4c0.4,0,0.7-0.1,1-0.3s0.7-0.5,1-0.8v-4.1
				c-0.3-0.3-0.7-0.5-1-0.6s-0.6-0.2-1-0.2c-0.3,0-0.6,0.1-0.9,0.2c-0.3,0.1-0.5,0.4-0.7,0.6c-0.2,0.3-0.4,0.6-0.5,1
				s-0.2,0.8-0.2,1.2c0,1,0.2,1.7,0.6,2.2C218.6,63.1,219.2,63.4,219.9,63.4z"/>
			<path class="st5" d="M227.7,64.5c-0.7,0-1.2-0.2-1.6-0.6c-0.4-0.4-0.7-0.9-0.7-1.7c0-0.9,0.4-1.5,1.2-2s2-0.8,3.7-1
				c0-0.2,0-0.5-0.1-0.7c0-0.2-0.1-0.4-0.3-0.6c-0.1-0.2-0.3-0.3-0.5-0.4c-0.2-0.1-0.5-0.2-0.8-0.2c-0.5,0-0.9,0.1-1.3,0.3
				c-0.4,0.2-0.8,0.4-1.1,0.6l-0.5-0.9c0.4-0.2,0.8-0.5,1.3-0.7s1.1-0.3,1.8-0.3c1,0,1.7,0.3,2.1,0.9c0.4,0.6,0.7,1.4,0.7,2.4v4.8
				h-1.1l-0.1-0.9l0,0c-0.4,0.3-0.8,0.6-1.2,0.8C228.7,64.4,228.2,64.5,227.7,64.5z M228.1,63.5c0.4,0,0.7-0.1,1.1-0.3
				c0.3-0.2,0.7-0.4,1.1-0.8v-2.2c-0.7,0.1-1.2,0.2-1.7,0.3s-0.8,0.3-1.1,0.4c-0.3,0.2-0.5,0.3-0.6,0.6c-0.1,0.2-0.2,0.4-0.2,0.7
				c0,0.5,0.1,0.8,0.4,1S227.7,63.5,228.1,63.5z"/>
			<path class="st5" d="M236.3,64.5c-0.4,0-0.8-0.1-1.1-0.2s-0.5-0.3-0.7-0.5c-0.2-0.2-0.3-0.5-0.4-0.8c-0.1-0.3-0.1-0.7-0.1-1.1
				v-4.4h-1.2v-1l1.2-0.1l0.2-2.2h1.1v2.2h2.1v1.1h-2.1v4.4c0,0.5,0.1,0.9,0.3,1.1c0.2,0.3,0.5,0.4,1,0.4c0.1,0,0.3,0,0.5-0.1
				c0.2,0,0.3-0.1,0.4-0.1l0.3,1c-0.2,0.1-0.5,0.1-0.7,0.2C236.8,64.5,236.6,64.5,236.3,64.5z"/>
			<path class="st5" d="M240.8,64.5c-0.7,0-1.2-0.2-1.6-0.6c-0.4-0.4-0.7-0.9-0.7-1.7c0-0.9,0.4-1.5,1.2-2s2-0.8,3.7-1
				c0-0.2,0-0.5-0.1-0.7c0-0.2-0.1-0.4-0.3-0.6c-0.1-0.2-0.3-0.3-0.5-0.4c-0.2-0.1-0.5-0.2-0.8-0.2c-0.5,0-0.9,0.1-1.3,0.3
				c-0.4,0.2-0.8,0.4-1.1,0.6l-0.5-0.9c0.4-0.2,0.8-0.5,1.3-0.7s1.1-0.3,1.8-0.3c1,0,1.7,0.3,2.1,0.9c0.4,0.6,0.7,1.4,0.7,2.4v4.8
				h-1.1l-0.1-0.9l0,0c-0.4,0.3-0.8,0.6-1.2,0.8C241.8,64.4,241.3,64.5,240.8,64.5z M241.2,63.5c0.4,0,0.7-0.1,1.1-0.3
				c0.3-0.2,0.7-0.4,1.1-0.8v-2.2c-0.7,0.1-1.2,0.2-1.7,0.3s-0.8,0.3-1.1,0.4c-0.3,0.2-0.5,0.3-0.6,0.6c-0.1,0.2-0.2,0.4-0.2,0.7
				c0,0.5,0.1,0.8,0.4,1C240.5,63.4,240.8,63.5,241.2,63.5z"/>
			<path class="st5" d="M249.5,64.5c-0.4,0-0.8-0.1-1.1-0.2s-0.5-0.3-0.7-0.5c-0.2-0.2-0.3-0.5-0.4-0.8c-0.1-0.3-0.1-0.7-0.1-1.1
				v-4.4H246v-1l1.2-0.1l0.2-2.2h1.1v2.2h2.1v1.1h-2.1v4.4c0,0.5,0.1,0.9,0.3,1.1c0.2,0.3,0.5,0.4,1,0.4c0.1,0,0.3,0,0.5-0.1
				c0.2,0,0.3-0.1,0.4-0.1l0.3,1c-0.2,0.1-0.5,0.1-0.7,0.2C250,64.5,249.7,64.5,249.5,64.5z"/>
			<path class="st5" d="M251.7,67.9c-0.2,0-0.5,0-0.7-0.1c-0.2,0-0.4-0.1-0.5-0.1l0.3-1c0.1,0,0.2,0.1,0.3,0.1s0.3,0,0.4,0
				c0.4,0,0.7-0.1,0.8-0.4s0.2-0.7,0.2-1.1v-8.8h1.3v8.8c0,0.8-0.2,1.4-0.5,1.9C253,67.6,252.4,67.9,251.7,67.9z M253.2,54.8
				c-0.3,0-0.5-0.1-0.7-0.2c-0.2-0.2-0.3-0.4-0.3-0.6c0-0.3,0.1-0.5,0.3-0.6c0.2-0.2,0.4-0.2,0.7-0.2c0.2,0,0.5,0.1,0.6,0.2
				c0.2,0.2,0.3,0.4,0.3,0.6c0,0.2-0.1,0.5-0.3,0.6C253.6,54.7,253.4,54.8,253.2,54.8z"/>
			<path class="st5" d="M258.3,64.5c-0.7,0-1.2-0.2-1.6-0.6S256,63,256,62.2c0-0.9,0.4-1.5,1.2-2s2-0.8,3.7-1c0-0.2,0-0.5-0.1-0.7
				c0-0.2-0.1-0.4-0.3-0.6c-0.1-0.2-0.3-0.3-0.5-0.4c-0.2-0.1-0.5-0.2-0.8-0.2c-0.5,0-0.9,0.1-1.3,0.3s-0.8,0.4-1.1,0.6l-0.5-0.9
				c0.4-0.2,0.8-0.5,1.3-0.7s1.1-0.3,1.8-0.3c1,0,1.7,0.3,2.1,0.9c0.4,0.6,0.7,1.4,0.7,2.4v4.8h-1.1l-0.1-0.9l0,0
				c-0.4,0.3-0.8,0.6-1.2,0.8C259.3,64.4,258.8,64.5,258.3,64.5z M257.8,54.8c-0.2,0-0.4-0.1-0.6-0.2c-0.2-0.2-0.2-0.3-0.2-0.6
				c0-0.2,0.1-0.4,0.2-0.6c0.2-0.2,0.3-0.2,0.6-0.2c0.2,0,0.4,0.1,0.6,0.2c0.2,0.2,0.2,0.3,0.2,0.6c0,0.2-0.1,0.4-0.2,0.6
				C258.3,54.7,258.1,54.8,257.8,54.8z M258.7,63.5c0.4,0,0.7-0.1,1.1-0.3c0.3-0.2,0.7-0.4,1.1-0.8v-2.2c-0.7,0.1-1.2,0.2-1.7,0.3
				s-0.8,0.3-1.1,0.4c-0.3,0.2-0.5,0.3-0.6,0.6c-0.1,0.2-0.2,0.4-0.2,0.7c0,0.5,0.1,0.8,0.4,1C258,63.4,258.3,63.5,258.7,63.5z
				 M261,54.8c-0.2,0-0.4-0.1-0.6-0.2c-0.2-0.2-0.2-0.3-0.2-0.6c0-0.2,0.1-0.4,0.2-0.6c0.2-0.2,0.3-0.2,0.6-0.2
				c0.2,0,0.4,0.1,0.6,0.2c0.2,0.2,0.2,0.3,0.2,0.6c0,0.2-0.1,0.4-0.2,0.6C261.4,54.7,261.2,54.8,261,54.8z"/>
			<path class="st5" d="M264.7,64.3v-7.9h1.1l0.1,1.1l0,0c0.4-0.4,0.8-0.7,1.2-1c0.4-0.3,0.9-0.4,1.5-0.4c0.8,0,1.4,0.3,1.8,0.8
				s0.6,1.3,0.6,2.3v5h-1.3v-4.8c0-0.7-0.1-1.3-0.4-1.6c-0.2-0.3-0.6-0.5-1.1-0.5c-0.4,0-0.8,0.1-1.1,0.3c-0.3,0.2-0.7,0.5-1.1,0.9
				v5.7h-1.3V64.3z"/>
			<path class="st5" d="M275.6,64.5c-0.6,0-1.1-0.1-1.6-0.3c-0.5-0.2-1-0.5-1.3-0.8l0.7-0.9c0.3,0.3,0.7,0.5,1.1,0.7
				s0.8,0.3,1.3,0.3s0.9-0.1,1.2-0.4c0.3-0.2,0.4-0.5,0.4-0.9c0-0.2-0.1-0.4-0.2-0.5c-0.1-0.2-0.2-0.3-0.4-0.4
				c-0.2-0.1-0.4-0.2-0.6-0.3s-0.4-0.2-0.7-0.3c-0.3-0.1-0.6-0.2-0.8-0.3c-0.3-0.1-0.5-0.3-0.8-0.5c-0.2-0.2-0.4-0.4-0.5-0.6
				c-0.1-0.2-0.2-0.5-0.2-0.9c0-0.3,0.1-0.6,0.2-0.9c0.1-0.3,0.3-0.5,0.5-0.7s0.5-0.4,0.9-0.5c0.3-0.1,0.7-0.2,1.1-0.2
				c0.5,0,1,0.1,1.4,0.3s0.8,0.4,1.1,0.6l-0.6,0.8c-0.3-0.2-0.6-0.4-0.8-0.5c-0.3-0.1-0.6-0.2-1-0.2c-0.5,0-0.9,0.1-1.1,0.3
				s-0.3,0.5-0.3,0.8c0,0.2,0,0.3,0.1,0.5c0.1,0.1,0.2,0.3,0.4,0.4c0.2,0.1,0.3,0.2,0.6,0.3c0.2,0.1,0.4,0.2,0.7,0.3
				c0.3,0.1,0.6,0.2,0.9,0.3s0.5,0.3,0.8,0.4c0.2,0.2,0.4,0.4,0.6,0.7c0.1,0.3,0.2,0.6,0.2,0.9c0,0.3-0.1,0.6-0.2,0.9
				c-0.1,0.3-0.3,0.5-0.6,0.7c-0.2,0.2-0.5,0.4-0.9,0.5C276.5,64.5,276.1,64.5,275.6,64.5z"/>
			<path class="st5" d="M282.5,64.5c-0.4,0-0.8-0.1-1.1-0.2s-0.5-0.3-0.7-0.5c-0.2-0.2-0.3-0.5-0.4-0.8s-0.1-0.7-0.1-1.1v-4.4H279
				v-1l1.2-0.1l0.2-2.2h1.1v2.2h2.1v1.1h-2.1v4.4c0,0.5,0.1,0.9,0.3,1.1c0.2,0.3,0.5,0.4,1,0.4c0.1,0,0.3,0,0.5-0.1
				c0.2,0,0.3-0.1,0.4-0.1l0.3,1c-0.2,0.1-0.5,0.1-0.7,0.2C283,64.5,282.8,64.5,282.5,64.5z"/>
		</g>
	</g>
</g>
<line class="st0" x1="106.9" y1="39" x2="104.4" y2="39"/>
<line class="st0" x1="106.8" y1="39.5" x2="104.3" y2="39.5"/>
</svg>
